# AST/ASF file generated using VICON BodyLanguage
# -----------------------------------------------
:version 1.10
:name VICON
:units
  mass 1.0
  length 0.45
  angle deg
:documentation
   .ast/.asf automatically generated from VICON data using
   VICON BodyBuilder and BodyLanguage model FoxedUp or BRILLIANT.MOD
:root
   order TX TY TZ RX RY RZ
   axis XYZ
   position 0 0 0  
   orientation 0 0 0 
:bonedata
  begin
     id 1 
     name lhipjoint
     direction 0.627457 -0.725269 0.283342 
     length 2.53237 
     axis 0 0 0  XYZ
  end
  begin
     id 2 
     name lfemur
     direction 0.34202 -0.939693 0  
     length 7.32496  
     axis 0 0 20  XYZ
    dof rx ry rz
    limits (-160.0 20.0)
           (-70.0 70.0)
           (-60.0 70.0)
  end
  begin
     id 3 
     name ltibia
     direction 0.34202 -0.939693 0   
     length 7.69674   
     axis 0 0 20   XYZ
    dof rx
    limits (-10.0 170.0)
  end
  begin
     id 4 
     name lfoot
     direction 0.127289 -0.349722 0.928166   
     length 1.8612   
     axis -90 7.62852e-016 20   XYZ
    dof rx rz
    limits (-45.0 90.0)
           (-70.0 20.0)
  end
  begin
     id 5 
     name ltoes
     direction 1.53561e-011 -4.21864e-011 1   
     length 0.925608   
     axis -90 7.62852e-016 20   XYZ
    dof rx
    limits (-90.0 20.0)
  end
  begin
     id 6 
     name rhipjoint
     direction -0.609094 -0.738725 0.288599   
     length 2.48624  
     axis 0 0 0  XYZ 
  end
  begin
     id 7 
     name rfemur
     direction -0.34202 -0.939693 0   
     length 7.44259   
     axis 0 0 -20   XYZ
    dof rx ry rz
    limits (-160.0 20.0)
           (-70.0 70.0)
           (-70.0 60.0)
  end
  begin
     id 8 
     name rtibia
     direction -0.34202 -0.939693 0   
     length 7.7781   
     axis 0 0 -20   XYZ
    dof rx
    limits (-10.0 170.0)
 end
 begin
     id 9 
     name rfoot
     direction -0.107015 -0.294021 0.949789   
     length 2.14741  
     axis -90 -7.62852e-016 -20   XYZ
    dof rx rz
    limits (-45.0 90.0)
           (-20.0 70.0)
  end
  begin
     id 10 
     name rtoes
     direction -1.53497e-011 -4.21924e-011 1   
     length 1.0706   
     axis -90 -7.62852e-016 -20   XYZ
    dof rx
    limits (-90.0 20.0)
  end
  begin
     id 11 
     name lowerback
     direction -0.0142066 0.998112 -0.0597545   
     length 1.86627   
     axis 0 0 0   XYZ
    dof rx ry rz
    limits (-20.0 45.0)
           (-30.0 30.0)
           (-30.0 30.0)
  end
  begin
     id 12 
     name upperback
     direction 0.00547294 0.999744 0.0219437   
     length 1.86272   
     axis 0 0 0   XYZ
    dof rx ry rz
    limits (-20.0 45.0)
           (-30.0 30.0)
           (-30.0 30.0)
  end
  begin
     id 13 
     name thorax
     direction 0.0116162 0.998704 0.0495538   
     length 1.8703   
     axis 0 0 0   XYZ
    dof rx ry rz
    limits (-20.0 45.0)
           (-30.0 30.0)
           (-30.0 30.0)
  end
  begin
     id 14 
     name lowerneck
     direction -0.0106574 0.998739 0.0490586   
     length 1.8074   
     axis 0 0 0   XYZ
    dof rx ry rz
    limits (-20.0 45.0)
           (-30.0 30.0)
           (-30.0 30.0)
  end
  begin
     id 15 
     name upperneck
     direction 0.030527 0.976587 -0.212944   
     length 1.80681   
     axis 0 0 0   XYZ
    dof rx ry rz
    limits (-20.0 45.0)
           (-30.0 30.0)
           (-30.0 30.0)
  end
  begin
     id 16
     name head
     direction 0.00869225 0.997035 -0.0764531  
     length 1.8313  
     axis 0 0 0   XYZ
    dof rx ry rz
    limits (-20.0 45.0)
           (-30.0 30.0)
           (-30.0 30.0)
  end
  begin
     id 17 
     name lclavicle
     direction 0.915958 0.399447 0.0382386  
     length 3.78965  
     axis 0 0 0   XYZ
    dof ry rz
    limits (-20.0 10.0)
           (0.0 20.0)
  end
  begin
     id 18 
     name lhumerus
     direction 1 -4.48967e-011 3.19303e-027   
     length 4.78095   
     axis -180 -30 -90   XYZ
    dof rx ry rz
    limits (-60.0 90.0)
           (-90.0 90.0)
           (-90.0 90.0)
  end
  begin
     id 19
     name lradius
     direction 1 -4.48967e-011 -3.77974e-027   
     length 3.58615   
     axis -180 -30 -90   XYZ
    dof rx
    limits (-10.0 170.0)
  end
  begin
     id 20
     name lwrist
     direction 1 -4.48927e-011 1.2807e-027   
     length 1.79307   
     axis 1.91374e-015 90 90   XYZ
    dof ry
    limits (-180.0 0.0)
 end
  begin
     id 21 
     name lhand
     direction 1 -4.49036e-011 2.5614e-027   
     length 0.659812   
     axis -1.63439e-015 90 90   XYZ
    dof rx rz
    limits (-90.0 90.0)
           (-45.0 45.0)
  end
  begin
     id 22 
     name lfingers
     direction 1 -4.49052e-011 5.1228e-027   
     length 0.531957   
     axis -3.26879e-015 90 90   XYZ
    dof rx
    limits (0.0 90.0)
  end
  begin
     id 23
     name lthumb
     direction 0.707107 -6.35012e-011 0.707107   
     length 0.763787   
     axis -90 45 2.85299e-015   XYZ
    dof rx rz
    limits (-45.0 45.0)
           (-45.0 45.0)
  end
  begin
     id 24 
     name rclavicle
     direction -0.895351 0.435135 0.0948887   
     length 3.70497  
     axis 0 0 0   XYZ 
    dof ry rz
    limits (-10.0 20.0)
           (-20.0 0.0)
  end
  begin
     id 25 
     name rhumerus
     direction -1 -4.48971e-011 2.38946e-027  
     length 4.48913   
     axis -180 30 90   XYZ
    dof rx ry rz
    limits (-90.0 60.0)
           (-90.0 90.0)
           (-90.0 90.0)
  end
  begin
     id 26 
     name rradius
     direction -1 -4.4895e-011 4.38668e-027   
     length 3.7051   
     axis -180 30 90   XYZ
    dof rx
    limits (-10.0 170.0)
  end
  begin
     id 27 
     name rwrist
     direction -1 -4.49007e-011 1.2807e-027   
     length 1.85255   
     axis 1.91374e-015 -90 -90   XYZ
    dof ry
    limits (-180.0 0.0)
  end
  begin
     id 28
     name rhand
     direction -1 -4.48851e-011 2.5614e-027   
     length 0.449136   
     axis -1.63439e-015 -90 -90   XYZ
    dof rx rz
    limits (-90.0 90.0)
           (-45.0 45.0)
  end
  begin
     id 29
     name rfingers
     direction -1 -4.49128e-011 5.1228e-027   
     length 0.362105   
     axis -3.26879e-015 -90 -90   XYZ
    dof rx
    limits (0.0 90.0)
  end
  begin
     id 30
     name rthumb
     direction -0.707107 -6.34851e-011 0.707107   
     length 0.519912   
     axis -90 -45 -2.85299e-015   XYZ
    dof rx rz
    limits (-45.0 45.0)
           (-45.0 45.0)
  end
:hierarchy
  begin
    root lhipjoint rhipjoint lowerback
    lhipjoint lfemur
    lfemur ltibia
    ltibia lfoot
    lfoot ltoes
    rhipjoint rfemur
    rfemur rtibia
    rtibia rfoot
    rfoot rtoes
    lowerback upperback
    upperback thorax
    thorax lowerneck lclavicle rclavicle
    lowerneck upperneck
    upperneck head
    lclavicle lhumerus
    lhumerus lradius
    lradius lwrist
    lwrist lhand lthumb
    lhand lfingers
    rclavicle rhumerus
    rhumerus rradius
    rradius rwrist
    rwrist rhand rthumb
    rhand rfingers
  end

#!OML:ASF I:\Actors\actors\Patient Classification 2\Patient 1\Session 1\actor1.ASF
:FULLY-SPECIFIED
:DEGREES
1
root -0.774776 18.6652 6.07041 0.421399 -3.07599 -3.38814
lowerback 0.168071 0.968251 0.119927
upperback -0.474179 1.29826 1.2425
thorax -0.60552 0.65186 1.19511
lowerneck -9.28578 -0.849028 -1.29181
upperneck 18.126 -1.38091 2.26854
head 7.09651 -0.553566 0.827394
rclavicle 3.16844e-014 1.13307e-014
rhumerus -47.078 1.437 -89.3999
rradius 41.1939
rwrist 18.8319
rhand -6.47761 -27.7458
rfingers 7.12502
rthumb 19.3732 -56.8008
lclavicle 3.16844e-014 1.13307e-014
lhumerus -39.5765 -0.597456 93.259
lradius 35.891
lwrist -12.9711
lhand -1.55115 -24.4671
lfingers 7.12502
lthumb 24.1038 4.03885
rfemur 8.96902 -5.77002 16.6611
rtibia -4.13472e-014
rfoot -12.6103 -4.54912
rtoes -8.13196
lfemur -3.50081 -7.45916 -11.6159
ltibia 22.8775
lfoot -23.886 14.0084
ltoes -55.4343
2
root -0.775107 18.6647 6.07111 0.42829 -3.07646 -3.40028
lowerback 0.600309 1.02712 0.342027
upperback -0.780491 1.38522 1.10856
thorax -1.15457 0.694591 0.920879
lowerneck -9.05583 -0.905011 -1.26791
upperneck 18.2973 -1.4892 2.38492
head 7.1139 -0.594509 0.852715
rclavicle -9.98582e-015 2.38542e-015
rhumerus -47.5652 1.14484 -89.4716
rradius 41.236
rwrist 18.9352
rhand -6.51753 -27.7166
rfingers 7.12502
rthumb 19.3348 -56.7754
lclavicle -9.98582e-015 2.38542e-015
lhumerus -40.0607 -0.858478 93.1957
lradius 35.951
lwrist -12.936
lhand -1.56069 -24.4035
lfingers 7.12502
lthumb 24.0947 4.10364
rfemur 8.9634 -5.77009 16.6771
rtibia 4.29375e-014
rfoot -12.6145 -4.55045
rtoes -8.09608
lfemur -3.50844 -7.44858 -11.6002
ltibia 22.8806
lfoot -23.8889 14.0099
ltoes -55.4637
3
root -0.775052 18.6646 6.07198 0.446849 -3.07607 -3.4036
lowerback 0.744216 1.03812 0.419041
upperback -0.89679 1.40324 1.06004
thorax -1.3516 0.702789 0.823612
lowerneck -8.9916 -0.918383 -1.25851
upperneck 18.3987 -1.52579 2.458
head 7.13656 -0.604985 0.872088
rclavicle 1.03461e-014 -1.35174e-014
rhumerus -47.7227 1.05514 -89.5132
rradius 41.2099
rwrist 19.0572
rhand -6.60493 -27.6954
rfingers 7.12502
rthumb 19.2508 -56.7626
lclavicle 1.03461e-014 -1.35174e-014
lhumerus -40.2365 -0.932903 93.1592
lradius 35.9823
lwrist -12.9088
lhand -1.58452 -24.3921
lfingers 7.12502
lthumb 24.0718 4.1181
rfemur 8.94987 -5.77136 16.6803
rtibia -7.95139e-015
rfoot -12.6036 -4.53134
rtoes -7.98282
lfemur -3.52928 -7.43572 -11.5958
ltibia 22.8912
lfoot -23.8912 14.0123
ltoes -55.4937
4
root -0.774857 18.6651 6.07266 0.466251 -3.07171 -3.41068
lowerback 0.736877 1.0231 0.424354
upperback -0.903926 1.38336 1.06592
thorax -1.35459 0.692834 0.827113
lowerneck -8.98791 -0.902636 -1.26301
upperneck 18.4145 -1.50967 2.48867
head 7.14093 -0.594844 0.884255
rclavicle 3.61229e-015 1.39149e-015
rhumerus -47.7161 1.09603 -89.5288
rradius 41.1857
rwrist 19.1074
rhand -6.66059 -27.675
rfingers 7.12502
rthumb 19.1972 -56.7475
lclavicle 3.61229e-015 1.39149e-015
lhumerus -40.2298 -0.866302 93.1352
lradius 35.9862
lwrist -12.9157
lhand -1.56419 -24.4161
lfingers 7.12502
lthumb 24.0913 4.09145
rfemur 8.93686 -5.77645 16.6859
rtibia -1.27222e-014
rfoot -12.598 -4.50887
rtoes -7.74006
lfemur -3.55287 -7.42642 -11.5834
ltibia 22.8974
lfoot -23.88 14.0027
ltoes -55.4782
5
root -0.774907 18.6647 6.07416 0.476099 -3.0667 -3.40329
lowerback 0.715046 1.02387 0.41489
upperback -0.908818 1.38401 1.06034
thorax -1.34744 0.693235 0.827054
lowerneck -8.94532 -0.905686 -1.22697
upperneck 18.3947 -1.51316 2.45449
head 7.12652 -0.59746 0.866941
rclavicle -6.9264e-016 -9.14409e-015
rhumerus -47.7649 1.0813 -89.5281
rradius 41.2052
rwrist 19.1606
rhand -6.70411 -27.6265
rfingers 7.12502
rthumb 19.1554 -56.7032
lclavicle -6.9264e-016 -9.14409e-015
lhumerus -40.237 -0.848795 93.1271
lradius 35.9798
lwrist -12.9748
lhand -1.55075 -24.4429
lfingers 7.12502
lthumb 24.1042 4.063
rfemur 8.93222 -5.7819 16.6771
rtibia 1.59028e-014
rfoot -12.6327 -4.4982
rtoes -7.54802
lfemur -3.56263 -7.41767 -11.5895
ltibia 22.9017
lfoot -23.8661 13.9999
ltoes -55.4878
6
root -0.774959 18.6636 6.07576 0.460467 -3.07485 -3.39444
lowerback 0.723652 1.03665 0.4035
upperback -0.910111 1.40094 1.05434
thorax -1.35391 0.701782 0.826777
lowerneck -8.92812 -0.924387 -1.1606
upperneck 18.401 -1.53363 2.36807
head 7.1248 -0.610354 0.826134
rclavicle 1.27874e-014 -1.03368e-014
rhumerus -47.8197 1.03698 -89.527
rradius 41.2429
rwrist 19.1817
rhand -6.74337 -27.6404
rfingers 7.12502
rthumb 19.1176 -56.7208
lclavicle 1.27874e-014 -1.03368e-014
lhumerus -40.2718 -0.906961 93.153
lradius 36.0038
lwrist -13.0045
lhand -1.59618 -24.4658
lfingers 7.12502
lthumb 24.0607 4.0458
rfemur 8.9513 -5.77285 16.6655
rtibia -6.99722e-014
rfoot -12.6629 -4.4974
rtoes -7.63368
lfemur -3.53451 -7.41289 -11.6084
ltibia 22.9052
lfoot -23.8648 14.0269
ltoes -55.5664
7
root -0.775165 18.6632 6.07581 0.451112 -3.08003 -3.3927
lowerback 0.749871 1.03683 0.393126
upperback -0.899213 1.40127 1.06106
thorax -1.35788 0.702074 0.839068
lowerneck -8.99091 -0.923828 -1.12107
upperneck 18.4324 -1.52869 2.31028
head 7.14535 -0.609698 0.801088
rclavicle 9.4578e-015 2.78299e-015
rhumerus -47.803 1.0501 -89.5463
rradius 41.2635
rwrist 19.1147
rhand -6.77559 -27.7949
rfingers 7.12502
rthumb 19.0866 -56.8784
lclavicle 9.4578e-015 2.78299e-015
lhumerus -40.2537 -0.910675 93.1707
lradius 36.0136
lwrist -13.0255
lhand -1.60876 -24.4802
lfingers 7.12502
lthumb 24.0486 4.03305
rfemur 8.95915 -5.76725 16.664
rtibia -1.90833e-014
rfoot -12.6521 -4.50197
rtoes -7.80494
lfemur -3.52131 -7.42218 -11.6129
ltibia 22.9037
lfoot -23.8804 14.033
ltoes -55.5819
